<svg xmlns="http://www.w3.org/2000/svg" xmlns:xlink="http://www.w3.org/1999/xlink" version="1.1" width="750" height="750" viewBox="0,0,750,750">
    <circle cx="58" cy="341" r="48" fill="transparent" stroke="black" stroke-width="1" id="circle1"/>
    <text x="44" y="346" fill="black" id="text1">SoL</text>
    <text x="24" y="29" fill="black" id="text2">SoL - Start of Line</text>
    <text x="333" y="93" fill="black" id="text3">var.</text>
    <circle cx="352" cy="90" r="30" fill="transparent" stroke="black" stroke-width="1" id="circle2"/>
    <text x="232" y="30" fill="black" id="text4">varchain:</text>
    <polyline points="387 87 422 87 412 77 422 87 412 97" stroke="black" fill="transparent" stroke-width="1" id="polyline1"/>
    <text x="435" y="94" fill="black" id="text5">chain</text>
    <circle cx="457" cy="89" r="30" fill="transparent" stroke="black" stroke-width="1" id="circle3"/>
    <text x="393" y="75" fill="black" id="text6">.</text>
    <line x1="418" y1="147" x2="443" y2="124" stroke="black" stroke-width="1" id="line1"/>
    <polyline points="418 148 378 123 380.38648538650455 133.34143667485327 378 123 388.3414366748533 120.6135146134954" stroke="black" fill="transparent" stroke-width="1" id="polyline2"/>
    <text x="432" y="146" fill="black" id="text7">{leadId}</text>
    <line x1="396" y1="33" x2="435" y2="67" stroke="black" stroke-width="1" id="line2"/>
    <polyline points="396 32 358 59 368.88572281563506 60.84219924572285 358 59 359.8421992457229 48.114277184364994" stroke="black" fill="transparent" stroke-width="1" id="polyline3"/>
    <text x="378" y="28" fill="black" id="text8">{id}</text>
    <text x="23" y="51" fill="black" id="text9">leadId - a-zA-Z_</text>
    <text x="22" y="72" fill="black" id="text10">id - a-zA-Z0-9_</text>
    <polyline points="274 90 316 90 306 80 316 90 306 100" stroke="black" fill="transparent" stroke-width="1" id="polyline4"/>
    <text x="216" y="79" fill="black" id="text11">{leadId}</text>
    <polyline points="341 126 341 158 331 148 341 158 351 148" stroke="black" fill="transparent" stroke-width="1" id="polyline5"/>
    <text x="327" y="142" fill="black" id="text12">x</text>
    <polyline points="83 297 117 263 105.68629150101523 263 117 263 117 274.31370849898474" stroke="black" fill="transparent" stroke-width="1" id="polyline6"/>
    <text x="16" y="281" fill="black" id="text13">{leadId}</text>
    <text x="131" y="249" fill="black" id="text14">mod.</text>
    <circle cx="147" cy="249" r="30" fill="transparent" stroke="black" stroke-width="1" id="circle4"/>
    <text x="22" y="94" fill="black" id="text15">mod. - module</text>
    <text x="127" y="265" fill="black" id="text16">name</text>
    <line x1="139" y1="182" x2="168" y2="224" stroke="black" stroke-width="1" id="line3"/>
    <text x="120" y="180" fill="black" id="text17">{id}</text>
    <polyline points="138 184 118 227 129.13693180368807 222.9341360081774 118 227 113.93413600817739 215.86306819631193" stroke="black" fill="transparent" stroke-width="1" id="polyline7"/>
    <polyline points="180 245 221 245 211 235 221 245 211 255" stroke="black" fill="transparent" stroke-width="1" id="polyline8"/>
    <text x="186" y="237" fill="black" id="text18">:</text>
    <circle cx="274" cy="335" r="53" fill="transparent" stroke="black" stroke-width="1" id="circle5"/>
    <text x="229" y="327" fill="black" id="text19">dflt impl</text>
    <text x="254" y="310" fill="black" id="text20">mod.</text>
    <text x="249" y="344" fill="black" id="text21">suite</text>
    <text x="228" y="356" fill="black" id="text22">introducer</text>
    <text x="229" y="237" fill="black" id="text24">dflt</text>
    <text x="233" y="221" fill="black" id="text23">mod.</text>
    <circle cx="249" cy="233" r="30" fill="transparent" stroke="black" stroke-width="1" id="circle6"/>
    <text x="229" y="252" fill="black" id="text25">impl</text>
    <polyline points="273 255 301 283 301 271.68629150101526 301 283 289.68629150101526 283" stroke="black" fill="transparent" stroke-width="1" id="polyline9"/>
    <text x="291" y="261" fill="black" id="text26">=</text>
    <polyline points="228 258 109 328 119.1074675193136 330.62045454204423 109 328 111.6204545420443 317.89253248068644" stroke="black" fill="transparent" stroke-width="1" id="polyline10"/>
    <text x="180" y="302" fill="black" id="text27">\n</text>
    <polyline points="212 340 108 340 118 330 108 340 118 350" stroke="black" fill="transparent" stroke-width="1" id="polyline11"/>
    <text x="183" y="334" fill="black" id="text28">\n</text>
    <polyline points="105 361 400 361 390 351 400 361 390 371" stroke="black" fill="transparent" stroke-width="1" id="polyline12"/>
    <text x="22" y="118" fill="black" id="text29">\t - 4 spaces</text>
    <text x="354" y="353" fill="black" id="text30">\t</text>
    <circle cx="432" cy="363" r="30" fill="transparent" stroke="black" stroke-width="1" id="circle7"/>
    <polyline points="464 362 549 362 539 352 549 362 539 372" stroke="black" fill="transparent" stroke-width="1" id="polyline13"/>
    <text x="473" y="353" fill="black" id="text31">\t</text>
    <circle cx="582" cy="363" r="31" fill="transparent" stroke="black" stroke-width="1" id="circle8"/>
    <polyline points="426 393 358 443 369.0433441414723 444.6845779198856 358 443 359.6845779198856 431.9566558585277" stroke="green" fill="transparent" stroke-width="1" id="polyline14"/>
    <polyline points="426 393 426 472 416 462 426 472 436 462" stroke="black" fill="transparent" stroke-width="1" id="polyline15"/>
    <polyline points="429 394 472 470 474.7133167185065 460.215615469628 472 470 462.215615469628 467.2866832814935" stroke="green" fill="transparent" stroke-width="1" id="polyline16"/>
    <circle cx="432" cy="492" r="17" fill="transparent" stroke="black" stroke-width="1" id="circle9"/>
    <text x="393" y="459" fill="black" id="text35">0 1</text>
    <circle cx="322" cy="487" r="55" fill="transparent" stroke="black" stroke-width="1" id="circle10"/>
    <text x="270" y="478" fill="black" id="text36">conditional</text>
    <text x="296" y="498" fill="black" id="text37">suite</text>
    <text x="275" y="516" fill="black" id="text38">introducer</text>
    <polyline points="268 472 90 379 93.03897015509949 388.68895190625835 90 379 99.68895190625835 375.9610298449005" stroke="green" fill="transparent" stroke-width="1" id="polyline17"/>
    <polyline points="416 498 377 498 387 488 377 498 387 508" stroke="black" fill="transparent" stroke-width="1" id="polyline18"/>
    <text x="395" y="514" fill="black" id="text39">:</text>
    <text x="260" y="417" fill="black" id="text40">"!{varchain}:"</text>
    <circle cx="504" cy="492" r="30" fill="transparent" stroke="black" stroke-width="1" id="circle11"/>
    <text x="457" y="432" fill="black" id="text41">{varchain}</text>
    <text x="487" y="489" fill="black" id="text42">var.</text>
    <text x="479" y="506" fill="black" id="text43">chain</text>
    <circle cx="436" cy="582" r="30" fill="transparent" stroke="black" stroke-width="1"/>
    <text x="416" y="587" fill="black" id="text44">cast</text>
    <polyline points="501 522 462 564 472.28024474186606 563.6192501947456 462 564 461.61925019474563 553.719755258134" stroke="black" fill="transparent" stroke-width="1" id="polyline19"/>
    <text x="483" y="556" fill="black" id="text45">" as "</text>
    <circle cx="350" cy="590" r="17" fill="transparent" stroke="black" stroke-width="1"/>
    <polyline points="406 589 369 589 379 579 369 589 379 599" stroke="black" fill="transparent" stroke-width="1" id="polyline20"/>
    <text x="373" y="578" fill="black" id="text46">0 1</text>
    <polyline points="333 586 302 541 300.0839687219461 551.4013126522925 302 541 312.40131265229246 542.9160312780539" stroke="black" fill="transparent" stroke-width="1" id="polyline21"/>
    <text x="322" y="565" fill="black" id="text47">:</text>
    <text x="195" y="428" fill="black" id="text48">\n</text>
    <polyline points="487 523 369 523 379 513 369 523 379 533" stroke="green" fill="transparent" stroke-width="1" id="polyline22"/>
    <text x="388" y="539" fill="black" id="text49">:</text>
    <text x="514" y="42" fill="black" id="text50">varchain has at minimum</text>
    <text x="514" y="62" fill="black" id="text51">1 token (loop:) &amp; a max</text>
    <text x="515" y="84" fill="black" id="text52">of 2 tokens (module.var)</text>
    <polyline points="582 396 582 670 572 660 582 670 592 660" stroke="green" fill="transparent" stroke-width="1" id="polyline23"/>
    <text x="429" y="660" fill="black" id="text53">"!{varchain}:="</text>
    <polyline points="600 389 600 704 590 694 600 704 610 694" stroke="green" fill="transparent" stroke-width="1" id="polyline24"/>
    <text x="465" y="705" fill="black" id="text54">"!{varchain}"</text>
    <polyline points="616 375 616 725 606 715 616 725 626 715" stroke="green" fill="transparent" stroke-width="1" id="polyline25"/>
    <text x="616" y="711" fill="black" id="text55">"{varchain}:="</text>
    <polyline points="564 395 564 620 554 610 564 620 574 610" stroke="green" fill="transparent" stroke-width="1" id="polyline26"/>
    <text x="456" y="622" fill="black" id="text56">{varchain}</text>
    <polyline points="574 331 574 285 564 295 574 285 584 295" stroke="black" fill="transparent" stroke-width="1" id="polyline27"/>
    <text x="21" y="142" fill="black" id="text58">number - 0-9(.0-9)</text>
    <text x="21" y="163" fill="black" id="text59">string `..`</text>
    <circle cx="575" cy="252" r="31" fill="transparent" stroke="black" stroke-width="1" id="circle12"/>
    <polyline points="544 245 479 220 483.3514263457634 229.79070927796758 479 220 488.79070927796755 215.64857365423663" stroke="black" fill="transparent" stroke-width="1" id="polyline28"/>
    <text x="509" y="228" fill="black" id="text60">\n</text>
    <circle cx="446" cy="217" r="30" fill="transparent" stroke="black" stroke-width="1" id="circle13"/>
    <text x="426" y="226" fill="black" id="text61">*SoL</text>
    <polyline points="569 222 569 163 559 173 569 163 579 173" stroke="black" fill="transparent" stroke-width="1" id="polyline29"/>
    <text x="531" y="212" fill="black" id="text62">.{exec}</text>
    <text x="15" y="629" fill="black" id="text63">exec -</text>
    <text x="50" y="677" fill="black" id="text64">api interface (or any var naming)</text>
    <text x="50" y="653" fill="black" id="text65">"exec" by convention for a single</text>
    <circle cx="567" cy="142" r="17" fill="transparent" stroke="black" stroke-width="1" id="circle14"/>
    <polyline points="543 155 476 191 485.7834027785064 193.94451928285145 476 191 478.94451928285145 181.2165972214936" stroke="black" fill="transparent" stroke-width="1" id="polyline30"/>
    <text x="505" y="187" fill="black" id="text66">\n</text>
    <text x="628" y="651" fill="black" id="text67">* \n -&gt; *SoL</text>
    <polyline points="603 343 673 199 662.1913677732914 202.73756441484312 673 199 676.7375644148432 209.8086322267086" stroke="green" fill="transparent" stroke-width="1" id="polyline31"/>
    <text x="579" y="328" fill="black" id="text68">"{varchain} = "</text>
    <circle cx="682" cy="184" r="17" fill="transparent" stroke="black" stroke-width="1" id="circle15"/>
    <circle cx="709" cy="102" r="17" fill="transparent" stroke="black" stroke-width="1" id="circle16"/>
    <circle cx="627" cy="123" r="17" fill="transparent" stroke="black" stroke-width="1" id="circle19"/>
    <polyline points="668 170 634 142 634.9982683969693 152.31544010201546 634 142 644.3154401020155 141.0017316030307" stroke="black" fill="transparent" stroke-width="1" id="polyline32"/>
    <polyline points="691 167 714 136 704.0390175171982 137.47570110856321 714 136 715.4757011085633 145.96098248280188" stroke="green" fill="transparent" stroke-width="1" id="polyline33"/>
    <text x="13" y="706" fill="black" id="text69">{externModuleCast} -</text>
    <text x="59" y="728" fill="black" id="text70">"[{number}|{string}]&lt;Extmodule&gt;"</text>
    <text x="386" y="312" fill="black" id="text71">{externModuleCast}</text>
    <text x="591" y="153" fill="black" id="text72">{extMdCst}</text>
    <polyline points="613 96 446 180 455.56499532155937 183.16292673979848 446 180 449.1629267397985 170.4350046784406" stroke="black" fill="transparent" stroke-width="1" id="polyline34"/>
    <text x="537" y="118" fill="black" id="text73">* \n</text>
    <text x="642" y="131" fill="black" id="text74">{num}|{str}</text>
    <polyline points="732 312 699 381 709.9280138910649 377.14305392080064 699 381 695.1430539208006 370.07198610893516" stroke="black" fill="transparent" stroke-width="1" id="polyline35"/>
    <circle cx="700" cy="402" r="17" fill="transparent" stroke="black" stroke-width="1" id="circle17"/>
    <text x="649" y="298" fill="black" id="text75">{varchain}</text>
    <polyline points="616 372 677 437 677.324573604479 426.7759314589093 677 437 666.7759314589093 436.675426395521" stroke="green" fill="transparent" stroke-width="1" id="polyline36"/>
    <text x="616" y="492" fill="black" id="text76">"{varchain}--"</text>
    <text x="15" y="583" fill="black" id="text77">var -</text>
    <text x="55" y="603" fill="black" id="text78">"{leadId}{id}"</text>
    <circle cx="691" cy="453" r="17" fill="transparent" stroke="black" stroke-width="1" id="circle18"/>
    <line x1="696" y1="193" x2="733" y2="312" stroke="black" stroke-width="1" id="line4"/>
    <circle cx="629" cy="248" r="17" fill="transparent" stroke="black" stroke-width="1" id="circle20"/>
    <polyline points="617 132 645 233 650.5305851814232 223.22677413145746 645 233 635.2267741314574 227.46941481857675" stroke="black" fill="transparent" stroke-width="1" id="polyline37"/>
    <polyline points="647 252 720 274 715.059938925957 264.79792545031205 720 274 710.797925450312 278.940061074043" stroke="black" fill="transparent" stroke-width="1" id="polyline38"/>
    <text x="619" y="199" fill="black" id="text79">.</text>
    <text x="17" y="475" fill="green" id="text80">Green edges have</text>
    <text x="17" y="495" fill="green" id="text81">at least 1 lex test</text>
    <text x="17" y="515" fill="red" id="text82">todo: really needs to test</text>
    <text x="17" y="536" fill="black" id="text83">1 tok. per edge and all</text>
    <text x="17" y="555" fill="black" id="text84">varchain variations</text>
    <rect rx="0" ry="0" x="11" y="455" width="261" height="106" stroke="black" fill="transparent" stroke-width="1" id="rect1"/>
</svg>