<svg xmlns="http://www.w3.org/2000/svg" xmlns:xlink="http://www.w3.org/1999/xlink" version="1.1" width="750" height="750" viewBox="0,0,750,750">
    <circle cx="58" cy="341" r="48" fill="transparent" stroke="black" stroke-width="1" id="circle1"/>
    <text x="44" y="346" fill="black" id="text1">SoL</text>
    <text x="24" y="29" fill="black" id="text2">SoL - Start of Line</text>
    <text x="333" y="93" fill="black" id="text3">var.</text>
    <circle cx="352" cy="90" r="30" fill="transparent" stroke="black" stroke-width="1" id="circle2"/>
    <text x="232" y="30" fill="black" id="text4">varchain:</text>
    <polyline points="387 87 422 87 412 77 422 87 412 97" stroke="black" fill="transparent" stroke-width="1" id="polyline1"/>
    <text x="435" y="94" fill="black" id="text5">chain</text>
    <circle cx="457" cy="89" r="30" fill="transparent" stroke="black" stroke-width="1" id="circle3"/>
    <text x="393" y="75" fill="black" id="text6">.</text>
    <line x1="418" y1="147" x2="443" y2="124" stroke="black" stroke-width="1" id="line1"/>
    <polyline points="418 148 378 123 380.38648538650455 133.34143667485327 378 123 388.3414366748533 120.6135146134954" stroke="black" fill="transparent" stroke-width="1" id="polyline2"/>
    <text x="432" y="146" fill="black" id="text7">{leadId}</text>
    <line x1="396" y1="33" x2="435" y2="67" stroke="black" stroke-width="1" id="line2"/>
    <polyline points="396 32 358 59 368.88572281563506 60.84219924572285 358 59 359.8421992457229 48.114277184364994" stroke="black" fill="transparent" stroke-width="1" id="polyline3"/>
    <text x="378" y="28" fill="black" id="text8">{id}</text>
    <text x="23" y="51" fill="black" id="text9">leadId - a-zA-Z_</text>
    <text x="22" y="72" fill="black" id="text10">id - a-zA-Z0-9_</text>
    <polyline points="274 90 316 90 306 80 316 90 306 100" stroke="black" fill="transparent" stroke-width="1" id="polyline4"/>
    <text x="216" y="79" fill="black" id="text11">{leadId}</text>
    <polyline points="341 126 341 158 331 148 341 158 351 148" stroke="black" fill="transparent" stroke-width="1" id="polyline5"/>
    <text x="327" y="142" fill="black" id="text12">x</text>
    <polyline points="83 297 117 263 105.68629150101523 263 117 263 117 274.31370849898474" stroke="black" fill="transparent" stroke-width="1" id="polyline6"/>
    <text x="16" y="281" fill="black" id="text13">{leadId}</text>
    <text x="131" y="249" fill="black" id="text14">mod.</text>
    <circle cx="147" cy="249" r="30" fill="transparent" stroke="black" stroke-width="1" id="circle4"/>
    <text x="22" y="94" fill="black" id="text15">mod. - module</text>
    <text x="127" y="265" fill="black" id="text16">name</text>
    <line x1="139" y1="182" x2="168" y2="224" stroke="black" stroke-width="1" id="line3"/>
    <text x="120" y="180" fill="black" id="text17">{id}</text>
    <polyline points="138 184 118 227 129.13693180368807 222.9341360081774 118 227 113.93413600817739 215.86306819631193" stroke="black" fill="transparent" stroke-width="1" id="polyline7"/>
    <polyline points="180 245 221 245 211 235 221 245 211 255" stroke="black" fill="transparent" stroke-width="1" id="polyline8"/>
    <text x="186" y="237" fill="black" id="text18">:</text>
    <circle cx="274" cy="335" r="53" fill="transparent" stroke="black" stroke-width="1" id="circle5"/>
    <text x="229" y="327" fill="black" id="text19">dflt impl</text>
    <text x="254" y="310" fill="black" id="text20">mod.</text>
    <text x="249" y="344" fill="black" id="text21">suite</text>
    <text x="228" y="356" fill="black" id="text22">introducer</text>
    <text x="229" y="237" fill="black" id="text24">dflt</text>
    <text x="233" y="221" fill="black" id="text23">mod.</text>
    <circle cx="249" cy="233" r="30" fill="transparent" stroke="black" stroke-width="1" id="circle6"/>
    <text x="229" y="252" fill="black" id="text25">impl</text>
    <polyline points="273 255 301 283 301 271.68629150101526 301 283 289.68629150101526 283" stroke="black" fill="transparent" stroke-width="1" id="polyline9"/>
    <text x="291" y="261" fill="black" id="text26">=</text>
    <polyline points="228 258 109 328 119.1074675193136 330.62045454204423 109 328 111.6204545420443 317.89253248068644" stroke="black" fill="transparent" stroke-width="1" id="polyline10"/>
    <text x="180" y="302" fill="black" id="text27">\n</text>
    <polyline points="212 340 108 340 118 330 108 340 118 350" stroke="black" fill="transparent" stroke-width="1" id="polyline11"/>
    <text x="183" y="334" fill="black" id="text28">\n</text>
    <polyline points="105 361 400 361 390 351 400 361 390 371" stroke="black" fill="transparent" stroke-width="1" id="polyline12"/>
    <text x="22" y="118" fill="black" id="text29">\t - 4 spaces</text>
    <text x="354" y="353" fill="black" id="text30">\t</text>
    <circle cx="432" cy="363" r="30" fill="transparent" stroke="black" stroke-width="1" id="circle7"/>
    <polyline points="464 362 607 362 597 352 607 362 597 372" stroke="black" fill="transparent" stroke-width="1" id="polyline13"/>
    <text x="473" y="353" fill="black" id="text31">\t</text>
    <circle cx="660" cy="363" r="51" fill="transparent" stroke="black" stroke-width="1" id="circle8"/>
    <text x="635" y="340" fill="black" id="text32">todo:</text>
    <text x="641" y="364" fill="black" id="text33">run</text>
    <text x="637" y="388" fill="black" id="text34">line</text>
    <polyline points="426 393 358 443 369.0433441414723 444.6845779198856 358 443 359.6845779198856 431.9566558585277" stroke="black" fill="transparent" stroke-width="1" id="polyline14"/>
    <polyline points="426 393 426 472 416 462 426 472 436 462" stroke="black" fill="transparent" stroke-width="1" id="polyline15"/>
    <polyline points="429 394 472 470 474.7133167185065 460.215615469628 472 470 462.215615469628 467.2866832814935" stroke="black" fill="transparent" stroke-width="1" id="polyline16"/>
    <circle cx="432" cy="492" r="17" fill="transparent" stroke="black" stroke-width="1" id="circle9"/>
    <text x="393" y="459" fill="black" id="text35">0 1</text>
    <circle cx="322" cy="487" r="55" fill="transparent" stroke="black" stroke-width="1" id="circle10"/>
    <text x="270" y="478" fill="black" id="text36">conditional</text>
    <text x="296" y="498" fill="black" id="text37">suite</text>
    <text x="275" y="516" fill="black" id="text38">introducer</text>
    <polyline points="268 472 90 379 93.03897015509949 388.68895190625835 90 379 99.68895190625835 375.9610298449005" stroke="black" fill="transparent" stroke-width="1" id="polyline17"/>
    <polyline points="416 498 377 498 387 488 377 498 387 508" stroke="black" fill="transparent" stroke-width="1" id="polyline18"/>
    <text x="395" y="514" fill="black" id="text39">:</text>
    <text x="260" y="417" fill="black" id="text40">"!{varchain}:"</text>
    <circle cx="504" cy="492" r="30" fill="transparent" stroke="black" stroke-width="1" id="circle11"/>
    <text x="457" y="432" fill="black" id="text41">{varchain}</text>
    <text x="487" y="489" fill="black" id="text42">var.</text>
    <text x="479" y="506" fill="black" id="text43">chain</text>
    <circle cx="436" cy="582" r="30" fill="transparent" stroke="black" stroke-width="1"/>
    <text x="416" y="587" fill="black" id="text44">cast</text>
    <polyline points="501 522 462 564 472.28024474186606 563.6192501947456 462 564 461.61925019474563 553.719755258134" stroke="black" fill="transparent" stroke-width="1" id="polyline19"/>
    <text x="483" y="556" fill="black" id="text45">" as "</text>
    <circle cx="350" cy="590" r="17" fill="transparent" stroke="black" stroke-width="1"/>
    <polyline points="406 589 369 589 379 579 369 589 379 599" stroke="black" fill="transparent" stroke-width="1" id="polyline20"/>
    <text x="373" y="578" fill="black" id="text46">0 1</text>
    <polyline points="333 586 302 541 300.0839687219461 551.4013126522925 302 541 312.40131265229246 542.9160312780539" stroke="black" fill="transparent" stroke-width="1" id="polyline21"/>
    <text x="322" y="565" fill="black" id="text47">:</text>
</svg>
